<svg width="90" height="47" viewBox="0 0 90 47" fill="none" xmlns="http://www.w3.org/2000/svg">
<path d="M43.6307 2.74271C42.1068 3.18322 40.2257 3.59991 38.4756 3.93326C36.7255 4.26662 34.904 4.58806 33.0943 4.81426C29.4975 5.31963 25.8685 5.56235 22.2364 5.5405C18.6326 5.5251 15.0407 5.126 11.5214 4.34995C8.02411 3.54339 4.69564 2.12898 1.68754 0.171112C1.56728 0.0940828 1.43293 0.0415801 1.29231 0.0166434C1.15169 -0.00829332 1.00758 -0.00518145 0.86816 0.0257993C0.728748 0.05678 0.596806 0.115016 0.47998 0.197163C0.363159 0.279309 0.263748 0.383753 0.187431 0.504466C0.0471268 0.71384 -0.0175514 0.964811 0.00409698 1.21592C0.0257416 1.46702 0.132393 1.70324 0.306458 1.88551C3.1445 4.65699 6.44937 6.9059 10.069 8.5288C13.7001 10.1215 17.492 11.319 21.3793 12.1005C25.262 12.8884 29.1975 13.3898 33.1538 13.6005C35.1302 13.7315 37.1184 13.7791 39.1066 13.7672C41.0948 13.7553 43.0235 13.7672 45.2498 13.5291C46.7002 13.3813 48.0378 12.6802 48.9846 11.5715C49.9314 10.4629 50.4145 9.03201 50.3335 7.57635C50.304 6.86734 50.1311 6.17167 49.8252 5.53136C49.5193 4.89105 49.0868 4.31939 48.5538 3.85092C48.0208 3.38245 47.3984 3.02688 46.7241 2.80571C46.0498 2.58454 45.3377 2.50236 44.6307 2.56412C44.2927 2.5939 43.9581 2.65367 43.6307 2.74271Z" fill="#390075"/>
<path d="M85.1943 37.716C81.3727 44.5498 68.5266 43.5974 51.1326 42.2997C37.7746 41.2996 30.4408 40.6448 27.2025 35.1564C23.0475 28.013 28.0835 16.9885 34.3458 11.131C42.9654 3.01142 56.3234 2.34472 66.1693 6.52356C80.1821 12.4644 89.7541 29.5489 85.1943 37.716Z" fill="white" stroke="#390075" stroke-width="6" stroke-miterlimit="10"/>
</svg>
