<svg width="37" height="35" viewBox="0 0 37 35" fill="none" xmlns="http://www.w3.org/2000/svg">
<path d="M36.8767 20.6129C36.5269 24.2526 35.0015 27.6795 32.5312 30.3754C24.4116 38.4116 4.12459 35.5305 0.564839 23.7797C-1.81627 15.8387 3.52926 4.25467 12.8632 0.921122C22.1971 -2.41243 29.9477 4.34993 30.3048 4.67138C31.1501 5.42142 37.8291 11.5647 36.8767 20.6129Z" fill="#42210B"/>
<path d="M13.3615 24.7961C13.404 22.7846 11.8077 21.1194 9.79614 21.0769C7.78456 21.0344 6.11942 22.6307 6.07693 24.6423C6.03444 26.6538 7.6307 28.319 9.64228 28.3615C11.6539 28.404 13.319 26.8077 13.3615 24.7961Z" fill="white"/>
<path d="M28.6414 10.3817C28.8225 7.25049 26.2128 4.55275 22.8126 4.35609C19.4123 4.15943 16.509 6.53834 16.3279 9.6695C16.1468 12.8007 18.7565 15.4984 22.1568 15.6951C25.5571 15.8917 28.4604 13.5128 28.6414 10.3817Z" fill="white"/>
</svg>
