<svg width="1129" height="813" viewBox="0 0 1129 813" fill="none" xmlns="http://www.w3.org/2000/svg">
<path d="M990.088 733.636H139.854C128.591 733.636 119.46 742.767 119.46 754.03C119.46 765.294 128.591 774.424 139.854 774.424H990.088C1001.35 774.424 1010.48 765.294 1010.48 754.03C1010.48 742.767 1001.35 733.636 990.088 733.636Z" fill="#A24F00"/>
<path opacity="0.3" d="M1003.26 738.994C1002.73 749.828 993.064 758.483 981.17 758.483H134.425C128.981 758.51 123.701 756.612 119.52 753.125C119.52 753.423 119.52 753.721 119.52 754.03C119.52 765.293 129.425 774.424 141.652 774.424H988.349C1000.58 774.424 1010.48 765.293 1010.48 754.03C1010.45 751.147 1009.79 748.305 1008.54 745.707C1007.3 743.108 1005.49 740.816 1003.26 738.994Z" fill="#390075"/>
<path opacity="0.55" d="M1009.95 749.542C1005.92 746.607 1001.06 745.042 996.076 745.077H149.331C143.549 745.037 137.96 747.16 133.663 751.03C131.643 752.855 130.024 755.081 128.91 757.565C127.795 760.049 127.208 762.737 127.187 765.46C127.187 766.979 127.366 768.494 127.722 769.972C125.193 768.156 123.126 765.769 121.691 763.006C120.255 760.243 119.491 757.18 119.46 754.066C119.479 751.343 120.065 748.654 121.18 746.17C122.295 743.685 123.915 741.46 125.937 739.636C130.231 735.763 135.821 733.64 141.604 733.684H988.349C998.874 733.636 1007.74 740.434 1009.95 749.542Z" fill="white"/>
<path d="M988.349 779.032H141.604C126.639 779.032 114.46 767.817 114.46 754.03C114.46 740.244 126.639 729.029 141.604 729.029H988.349C1003.31 729.029 1015.48 740.244 1015.48 754.03C1015.48 767.817 1003.31 779.032 988.349 779.032ZM141.604 738.244C132.163 738.244 124.472 745.327 124.472 754.03C124.472 762.733 132.163 769.817 141.604 769.817H988.349C997.791 769.817 1005.48 762.733 1005.48 754.03C1005.48 745.327 997.791 738.244 988.349 738.244H141.604Z" fill="#390075"/>
<path d="M942.358 643.678V692.252C942.358 693.098 942.358 693.955 942.287 694.788C942.216 695.884 942.085 697.003 941.93 698.074C940.785 705.384 937.599 712.223 932.739 717.802C932.474 718.16 932.188 718.502 931.882 718.826C927.488 723.55 922.159 727.307 916.232 729.857C910.306 732.407 903.914 733.694 897.463 733.636C872.652 733.636 852.531 715.099 852.531 692.252V643.678C852.618 641.798 853.443 640.028 854.827 638.753C856.212 637.477 858.044 636.8 859.925 636.868H935.001C936.876 636.81 938.698 637.491 940.075 638.765C941.452 640.04 942.272 641.804 942.358 643.678Z" fill="url(#paint0_linear)"/>
<path d="M897.427 734.469C872.151 734.469 851.591 715.528 851.591 692.241V643.666C851.683 641.548 852.613 639.553 854.176 638.12C855.738 636.686 857.806 635.932 859.924 636.023H935.001C937.119 635.932 939.187 636.686 940.749 638.12C942.312 639.553 943.242 641.548 943.335 643.666V692.241C943.335 693.098 943.335 693.979 943.263 694.824C943.18 695.943 943.061 697.086 942.906 698.169L942.763 698.896C941.494 706.085 938.292 712.793 933.501 718.302C933.229 718.669 932.934 719.019 932.62 719.349C928.129 724.18 922.679 728.02 916.619 730.624C910.559 733.228 904.022 734.537 897.427 734.469ZM859.889 637.701C858.241 637.637 856.634 638.226 855.418 639.341C854.203 640.456 853.478 642.006 853.4 643.654V692.229C853.4 714.587 873.152 732.779 897.451 732.779C903.772 732.836 910.037 731.574 915.844 729.076C921.651 726.577 926.874 722.895 931.179 718.266C931.464 717.965 931.73 717.647 931.977 717.314C936.758 711.834 939.894 705.115 941.025 697.931L941.144 697.205C941.251 696.384 941.334 695.538 941.394 694.705C941.454 693.872 941.465 693.038 941.465 692.217V643.642C941.388 641.997 940.664 640.448 939.452 639.334C938.239 638.219 936.635 637.628 934.989 637.689L859.889 637.701Z" fill="#390075"/>
<path opacity="0.3" d="M936.882 643.678V692.252C936.882 693.098 936.882 693.955 936.81 694.788C936.739 695.884 936.608 697.003 936.453 698.074C935.308 705.384 932.122 712.223 927.262 717.802C926.997 718.16 926.711 718.502 926.405 718.826C922.012 723.55 916.682 727.307 910.756 729.857C904.83 732.407 898.437 733.694 891.986 733.636C888.85 733.641 885.72 733.346 882.64 732.755C892.297 730.951 901.117 726.088 907.797 718.885C908.103 718.561 908.389 718.219 908.654 717.861C913.514 712.282 916.7 705.444 917.845 698.134C918 697.062 918.119 695.943 918.202 694.848C918.202 694.003 918.273 693.145 918.273 692.312V643.737C918.187 641.857 917.362 640.087 915.977 638.812C914.593 637.537 912.761 636.86 910.88 636.927H929.465C931.34 636.853 933.169 637.519 934.557 638.782C935.945 640.045 936.78 641.804 936.882 643.678Z" fill="#390075"/>
<path opacity="0.7" d="M905.201 733.029C902.63 733.433 900.03 733.636 897.427 733.636C872.616 733.636 852.496 715.099 852.496 692.252V643.678C852.582 641.798 853.407 640.028 854.792 638.753C856.176 637.477 858.008 636.8 859.889 636.868H875.366C873.485 636.8 871.653 637.477 870.269 638.753C868.885 640.028 868.059 641.798 867.973 643.678V692.252C867.997 712.67 884.069 729.6 905.201 733.029Z" fill="white"/>
<path d="M897.427 738.66C869.639 738.66 847.043 717.837 847.043 692.229V643.654C847.043 637.13 852.805 631.82 859.889 631.82H934.965C942.049 631.82 947.811 637.13 947.811 643.654V692.229C947.811 693.157 947.811 694.122 947.728 695.05C947.644 696.241 947.514 697.431 947.335 698.705C947.31 698.89 947.274 699.073 947.228 699.253C945.884 707.208 942.388 714.644 937.12 720.754C936.77 721.214 936.397 721.655 936.001 722.076C931.075 727.367 925.102 731.575 918.46 734.43C911.819 737.285 904.656 738.726 897.427 738.66ZM859.889 641.892C859.397 641.876 858.919 642.054 858.558 642.389C858.196 642.723 857.982 643.186 857.96 643.678V692.252C857.96 712.301 875.664 728.612 897.439 728.612C903.107 728.662 908.723 727.531 913.93 725.291C919.136 723.05 923.819 719.75 927.679 715.599C927.858 715.416 928.025 715.221 928.179 715.016L928.453 714.671C932.711 709.776 935.505 703.781 936.513 697.372C936.513 697.229 936.513 697.098 936.596 696.955C936.703 696.134 936.799 695.288 936.858 694.455C936.918 693.622 936.918 692.979 936.918 692.241V643.666C936.896 643.174 936.681 642.711 936.32 642.377C935.959 642.042 935.481 641.864 934.989 641.88L859.889 641.892Z" fill="#390075"/>
<path d="M206.323 430.771L207.239 435.033L243.813 606.402C243.504 590.329 253.433 575.816 262.184 561.899C266.624 554.851 270.934 547.267 273.553 539.457C276.125 531.873 277.125 524.087 275.125 516.372C272.744 507.252 266.541 499.478 262.791 490.763C248.706 458.047 271.958 420.223 261.874 386.256C257.436 372.054 247.938 359.975 235.182 352.314C231.955 350.349 227.979 348.611 224.348 349.814C217.895 351.969 218.526 360.422 219.693 366.648C223.708 388.947 218.915 411.935 206.323 430.771Z" fill="#005036"/>
<path opacity="0.2" d="M207.24 431.486L243.813 602.854C243.504 586.781 253.433 572.269 262.184 558.351C266.624 551.303 270.934 543.719 273.553 535.909C272.589 533.992 271.541 532.099 270.422 530.242C261.791 516.146 248.921 504.359 241.849 489.513C236.823 478.848 235.107 466.922 236.92 455.273C237.813 449.606 239.539 443.998 239.301 438.284C239.063 432.569 236.325 426.473 230.717 423.997C223.788 420.961 215.538 424.533 209.799 429.235C208.871 429.974 208.037 430.712 207.24 431.486Z" fill="#390075"/>
<path opacity="0.55" d="M206.323 430.771L207.942 438.319H219.705L219.335 436.534C231.915 417.701 236.696 394.721 232.67 372.434C231.479 366.208 230.896 357.779 237.349 355.624C238.02 355.39 238.722 355.257 239.432 355.231C238.051 354.195 236.622 353.243 235.17 352.362C231.943 350.397 227.967 348.659 224.336 349.861C217.883 352.016 218.514 360.469 219.681 366.696C223.687 388.978 218.899 411.946 206.323 430.771Z" fill="white"/>
<path d="M243.79 611.342C242.461 611.392 241.165 610.923 240.176 610.034C239.188 609.145 238.583 607.907 238.492 606.58C238.194 590.163 247.195 575.947 255.909 562.208L257.6 559.542C265.731 546.636 273.565 531.564 269.97 517.586C268.696 512.658 266.077 508.062 263.291 503.109C261.296 499.734 259.488 496.253 257.874 492.68C249.909 474.203 253.04 454.499 256.052 435.438C258.719 418.604 261.243 402.71 256.767 387.661C252.684 374.626 243.968 363.538 232.265 356.493C228.562 354.231 226.848 354.278 226.158 354.505C224.157 355.171 223.693 359.433 224.907 365.91C229.12 389.387 224.081 413.583 210.847 433.426C210.046 434.551 208.856 435.338 207.507 435.635C206.159 435.932 204.748 435.717 203.549 435.034C202.968 434.733 202.456 434.313 202.048 433.802C201.64 433.291 201.343 432.699 201.178 432.066C201.013 431.433 200.983 430.772 201.09 430.126C201.197 429.481 201.438 428.865 201.799 428.319C213.701 410.474 218.236 388.715 214.454 367.601C212.169 355.397 214.883 347.909 222.538 345.349C229.396 343.063 235.956 347.052 238.111 348.373C251.906 356.678 262.181 369.748 266.993 385.114C272.053 402.139 269.256 419.806 266.541 436.891C263.588 455.499 260.803 473.072 267.732 489.108C269.213 492.371 270.87 495.55 272.696 498.633C275.661 503.859 278.72 509.265 280.304 515.384C284.768 532.695 275.982 549.91 266.791 564.494L265.089 567.185C257.112 579.769 248.873 592.782 249.123 606.473C249.089 607.823 248.521 609.103 247.543 610.034C246.565 610.965 245.258 611.47 243.909 611.438L243.79 611.342Z" fill="#390075"/>
<path d="M254.909 620.45C262.006 607.838 265.623 593.566 265.391 579.096C265.159 564.626 261.085 550.478 253.588 538.1C244.968 524.003 232.098 512.217 225.086 497.383C220.036 486.729 218.29 474.808 220.074 463.154C220.955 457.487 222.681 451.88 222.455 446.165C222.229 440.45 219.49 434.343 213.883 431.878C206.966 428.831 198.691 432.426 192.953 437.117C179.631 448.046 173.202 464.94 173.19 481.37C173.178 497.799 178.976 513.848 186.941 528.551C192.679 539.135 199.751 549.981 198.846 561.815C198.013 572.638 190.596 581.9 185.226 591.579C179.857 601.258 176.654 613.688 183.69 622.391" fill="#00FFBF"/>
<path opacity="0.55" d="M185.238 591.555C179.881 601.211 176.678 613.664 183.714 622.379L196.322 622.034C189.631 613.343 192.81 601.08 198.096 591.555C203.382 582.031 210.895 572.637 211.74 561.792C212.657 550.005 205.561 539.171 199.834 528.539C191.882 513.836 186.06 497.787 186.072 481.358C186.084 464.928 192.524 448.022 205.847 437.093C208.4 434.971 211.283 433.282 214.383 432.093C214.225 432.005 214.062 431.925 213.895 431.855C206.99 428.819 198.715 432.39 192.977 437.093C179.666 448.022 173.226 464.916 173.202 481.358C173.178 497.799 179 513.836 186.965 528.539C192.691 539.123 199.787 549.969 198.87 561.792C198.037 572.637 190.62 581.9 185.238 591.555Z" fill="white"/>
<path d="M183.726 627.213C182.916 627.221 182.115 627.05 181.379 626.71C180.644 626.37 179.994 625.871 179.476 625.248C172.333 616.426 172.725 603.318 180.536 589.293C181.833 586.912 183.238 584.662 184.595 582.448C188.929 575.304 193.024 568.661 193.584 561.434C194.286 552.434 189.488 543.79 184.405 534.647C183.667 533.326 182.94 532.004 182.226 530.694C172.571 512.836 167.939 496.728 167.939 481.322C167.939 462.095 175.821 444.641 189.488 433.426C198.31 426.188 208.311 423.902 216.228 427.473C224.348 431.045 227.539 439.379 227.812 445.975C227.842 450.345 227.338 454.703 226.312 458.952C225.991 460.583 225.657 462.214 225.407 463.845C223.782 474.598 225.39 485.592 230.027 495.43C233.837 503.478 239.48 510.598 245.504 518.122C250.132 523.713 254.414 529.582 258.326 535.695C266.204 548.792 270.478 563.74 270.714 579.022C270.95 594.305 267.141 609.378 259.672 622.712C258.947 623.879 257.815 624.734 256.495 625.113C255.174 625.491 253.761 625.365 252.528 624.76C251.934 624.49 251.401 624.102 250.963 623.617C250.525 623.133 250.191 622.564 249.982 621.946C249.774 621.327 249.694 620.672 249.749 620.022C249.804 619.371 249.992 618.739 250.302 618.164C256.967 606.262 260.368 592.809 260.159 579.168C259.949 565.528 256.138 552.185 249.111 540.493C245.39 534.717 241.319 529.174 236.92 523.896C230.86 516.265 224.586 508.419 220.252 499.335C214.782 487.856 212.902 474.993 214.859 462.428C215.133 460.666 215.49 458.856 215.835 457.142C216.704 453.6 217.152 449.967 217.169 446.32C217.014 442.748 215.478 437.986 211.609 436.26C206.966 434.224 200.573 437.45 196.489 440.748C185.25 449.975 178.523 465.154 178.5 481.358C178.5 495.204 182.798 509.931 191.703 526.349C192.393 527.635 193.108 528.92 193.834 530.218C199.346 540.159 205.061 550.458 204.144 562.149C203.418 571.554 198.537 579.531 193.81 587.258C192.441 589.496 191.143 591.615 189.941 593.77C187.155 598.782 181.369 611.307 187.941 619.438C188.355 619.944 188.657 620.531 188.828 621.162C188.999 621.793 189.035 622.453 188.932 623.098C188.83 623.744 188.592 624.36 188.234 624.907C187.877 625.454 187.408 625.919 186.857 626.272C185.931 626.892 184.84 627.219 183.726 627.213Z" fill="#390075"/>
<path d="M211.454 733.636H232.694C253.54 733.636 270.648 718.445 271.434 699.265L274.303 628.582C274.53 622.986 269.672 618.331 263.588 618.331H180.559C174.476 618.331 169.618 622.986 169.844 628.582L172.713 699.265C173.487 718.445 190.608 733.636 211.454 733.636Z" fill="#B1C6E6"/>
<path opacity="0.3" d="M208.121 731.481H229.67C250.516 731.481 267.613 716.29 268.41 697.11L271.268 626.415C271.506 620.831 266.636 616.176 260.553 616.176H238.73C244.813 616.176 249.683 620.831 249.445 626.415L246.564 697.11C245.79 716.195 228.848 731.35 208.121 731.481Z" fill="#390075"/>
<path opacity="0.55" d="M169.844 628.57L172.702 699.265C173.499 718.445 190.56 733.636 211.442 733.636H225.491C204.644 733.636 187.548 718.445 186.75 699.265L183.893 628.57C183.655 622.986 188.524 618.331 194.608 618.331H180.559C174.487 618.331 169.618 622.986 169.844 628.57Z" fill="white"/>
<path d="M232.694 738.517H211.454C187.643 738.517 168.308 721.349 167.404 699.443L164.534 628.76C164.459 626.747 164.819 624.741 165.59 622.88C166.36 621.019 167.523 619.345 168.999 617.974C172.115 615.032 176.25 613.41 180.535 613.45H263.565C267.85 613.41 271.985 615.032 275.101 617.974C276.577 619.345 277.74 621.019 278.51 622.88C279.28 624.741 279.641 626.747 279.566 628.76L276.696 699.443C275.839 721.349 256.493 738.517 232.694 738.517ZM180.559 623.212C179.108 623.198 177.707 623.749 176.654 624.748C176.157 625.212 175.764 625.777 175.503 626.406C175.242 627.034 175.119 627.711 175.142 628.391L178.011 699.074C178.69 715.742 193.381 728.755 211.454 728.755H232.694C250.766 728.755 265.458 715.718 266.136 699.074L268.993 628.403C269.018 627.721 268.896 627.042 268.635 626.411C268.374 625.781 267.981 625.213 267.481 624.748C266.428 623.749 265.028 623.198 263.576 623.212H180.559Z" fill="#390075"/>
<path d="M273.613 650.166L170.523 645.273L273.613 640.392V650.166Z" fill="#390075"/>
<path d="M212.037 522.301C218.443 528.468 224.919 534.73 229.729 542.302C232.163 546.079 234.013 550.201 235.217 554.529C236.443 558.947 236.687 563.579 235.932 568.101C234.36 577.197 229.574 585.091 226.967 592.746C225.663 596.382 225.006 600.218 225.026 604.08C225.001 607.464 226.145 610.752 228.265 613.39C228.696 613.883 229.018 614.461 229.21 615.087C229.403 615.713 229.46 616.373 229.379 617.023C229.298 617.673 229.081 618.298 228.741 618.858C228.401 619.418 227.947 619.9 227.407 620.271C226.284 621.081 224.902 621.449 223.525 621.304C222.148 621.159 220.873 620.512 219.943 619.486C219.829 619.356 219.721 619.221 219.621 619.081L219.514 618.926C216.565 614.488 215.236 609.169 215.752 603.866C216.201 599.133 217.474 594.516 219.514 590.222C223.419 581.888 228.598 574.959 230.741 567.173C232.884 559.387 231.193 551.017 227.395 543.457C223.598 535.897 217.788 529.004 212.037 522.301Z" fill="#390075"/>
<path d="M718.439 364.743C718.915 343.04 718.749 320.169 717.701 296.263C716.02 257.873 712.212 219.605 706.296 181.636L449.446 217.912C425.742 292.774 438.207 386.578 472.59 430.771C537.533 420.564 601.526 405.034 663.924 384.34C682.75 378.077 700.922 371.545 718.439 364.743Z" fill="#A10805"/>
<path opacity="0.55" d="M456.113 197.006C441.826 249.47 443.048 302.823 459.78 357.064L449.41 360.314C432.139 305.454 430.73 251.482 445.183 198.399L675.043 109.322C675.913 109.917 676.794 110.513 677.651 111.132L456.113 197.006Z" fill="white"/>
<path d="M444.874 452.654C444.214 452.729 443.545 452.645 442.923 452.409C442.302 452.173 441.746 451.791 441.302 451.297C440.135 450.058 439.374 448.492 439.124 446.808C425.075 362.565 426.528 282.762 443.433 209.638C443.565 208.761 443.926 207.935 444.48 207.243C445.034 206.551 445.762 206.018 446.588 205.697L673.734 139.265C674.599 139.081 675.499 139.166 676.314 139.509C677.129 139.851 677.82 140.435 678.294 141.181C698.331 167.374 713.498 208.007 721.011 255.76C728.654 304.323 727.392 354.921 717.439 398.234C717.315 399.173 716.919 400.056 716.299 400.773C715.679 401.491 714.863 402.011 713.951 402.27L444.993 452.63L444.874 452.654ZM452.017 218.198C436.766 286.25 435.254 360.279 447.529 438.379L709.082 389.4C726.547 308.442 711.129 204.328 674.175 153.218L452.017 218.198Z" fill="#390075"/>
<path d="M750.763 475.607H381.048C386.108 438.605 395.335 406.674 409.479 380.697C418.598 364.029 435.219 351.945 454.827 347.361L535.904 328.658L538.106 328.146C540.773 327.616 543.194 326.229 545 324.196C546.805 322.162 547.896 319.594 548.107 316.883L548.714 305.489C548.714 305.489 579.394 264.772 608.515 299.37V312.728C608.563 315.194 609.322 317.593 610.701 319.638C612.081 321.682 614.021 323.285 616.29 324.252L631.541 331.205L644.863 337.277L659.042 343.754L661.424 344.825L689.271 357.528L703.819 364.16L711.272 367.553C716.635 369.921 721.464 373.349 725.468 377.632C729.472 381.914 732.568 386.961 734.571 392.471C741.976 413.746 746.822 437.081 749.536 462.119C750.005 466.563 750.413 471.06 750.763 475.607Z" fill="#F5D9CB"/>
<path d="M750.763 476.465H381.048C380.917 476.465 380.788 476.438 380.667 476.387C380.546 476.336 380.437 476.261 380.346 476.167C380.26 476.078 380.194 475.971 380.155 475.854C380.116 475.736 380.104 475.611 380.12 475.488C385.323 437.462 394.918 405.436 408.693 380.244C417.896 363.434 434.647 351.135 454.648 346.492L537.987 327.276C540.46 326.774 542.703 325.482 544.377 323.594C546.052 321.707 547.069 319.326 547.273 316.811L547.881 305.418C547.89 305.254 547.948 305.096 548.047 304.965C548.666 304.156 563.298 285.012 582.311 284.547C592.086 284.286 601.194 289.107 609.361 298.834C609.49 298.983 609.562 299.173 609.563 299.37V312.728C609.61 315.023 610.32 317.255 611.606 319.156C612.892 321.057 614.701 322.546 616.814 323.443L711.772 366.731C717.242 369.156 722.169 372.656 726.259 377.022C730.35 381.389 733.521 386.533 735.583 392.15C742.727 412.734 747.798 436.2 750.596 461.976C751.084 466.428 751.501 470.976 751.846 475.488C751.855 475.609 751.838 475.731 751.795 475.844C751.751 475.957 751.684 476.059 751.596 476.143C751.493 476.259 751.363 476.349 751.218 476.405C751.073 476.461 750.917 476.481 750.763 476.465ZM382.168 474.738H749.81C749.477 470.548 749.084 466.333 748.62 462.202C745.846 436.581 740.822 413.211 733.69 392.733C731.701 387.336 728.645 382.395 724.706 378.204C720.766 374.013 716.024 370.658 710.76 368.339L615.802 325.05C613.368 324.031 611.285 322.325 609.805 320.141C608.325 317.957 607.513 315.389 607.468 312.752V299.656C599.741 290.572 591.264 286.071 582.169 286.286C565.179 286.714 551.226 303.775 549.631 305.763L549.035 316.907C548.799 319.807 547.626 322.552 545.693 324.727C543.76 326.902 541.173 328.391 538.321 328.967L536.118 329.479L455.041 348.183C435.576 352.707 419.325 364.684 410.312 381.042C396.799 405.829 387.311 437.343 382.168 474.738Z" fill="#390075"/>
<path opacity="0.55" d="M535.451 328.872C536.737 333.944 533.368 339.039 527.879 340.301L467.042 354.338C447.434 358.886 430.813 371.006 421.706 387.673C408.431 411.996 399.526 441.582 394.323 475.631H381.048C386.108 438.629 395.335 406.698 409.479 380.72C418.598 364.053 435.219 351.969 454.827 347.385L535.439 328.789L535.451 328.872Z" fill="white"/>
<path opacity="0.3" d="M631.517 331.229C600.56 343.065 566.174 342.149 535.892 328.681L538.094 328.169C540.761 327.64 543.182 326.253 544.988 324.219C546.793 322.186 547.884 319.618 548.095 316.907L548.702 305.513C548.702 305.513 579.382 264.796 608.503 299.394V312.752C608.551 315.218 609.31 317.617 610.689 319.662C612.069 321.706 614.009 323.309 616.278 324.276L631.517 331.229Z" fill="#390075"/>
<path d="M689.223 357.54V475.619H450.362L454.791 347.433L489.436 339.444C542.892 419.949 599.372 439.105 661.495 344.897L689.223 357.54Z" fill="#FF7A00"/>
<path opacity="0.3" d="M750.763 475.608H688.616L667.638 395.186C667.638 395.186 655.733 367.291 661.376 344.849L689.223 357.552L703.772 364.184C703.772 367.029 704.022 369.875 704.355 372.696C705.958 386.227 710.532 399.237 717.749 410.794L749.513 462.071C749.997 466.547 750.414 471.06 750.763 475.608Z" fill="#390075"/>
<path opacity="0.55" d="M489.46 339.408C491.413 342.337 493.353 345.206 495.306 347.956L466.828 354.576L462.625 475.655H450.362L454.791 347.433L489.46 339.408Z" fill="white"/>
<path opacity="0.55" d="M689.223 357.54V359.183L673.496 352.04C630.124 417.77 589.49 428.307 550.738 401.245C585.871 418.437 622.576 403.9 661.459 344.897L689.223 357.54Z" fill="white"/>
<path d="M689.223 480.215H450.362C449.036 480.218 447.759 479.715 446.791 478.81C446.331 478.382 445.969 477.862 445.726 477.283C445.484 476.704 445.368 476.08 445.386 475.453L449.838 347.242C449.913 346.208 450.323 345.226 451.006 344.446C451.69 343.666 452.609 343.13 453.624 342.92L488.27 334.932C489.287 334.683 490.355 334.748 491.334 335.118C492.314 335.488 493.159 336.145 493.758 337.003C522.974 381.054 551.405 403.377 578.287 403.377C604.051 403.377 630.672 382.863 657.245 342.504C657.953 341.499 658.992 340.774 660.18 340.456C661.368 340.139 662.63 340.248 663.745 340.765L691.449 353.385C692.263 353.732 692.958 354.306 693.453 355.039C693.947 355.772 694.219 356.633 694.235 357.517V475.584C694.219 476.22 694.075 476.846 693.812 477.425C693.55 478.004 693.174 478.525 692.706 478.957C692.239 479.389 691.69 479.722 691.092 479.939C690.494 480.155 689.858 480.249 689.223 480.215ZM455.529 471H684.223V360.398L663.364 350.873C635.219 392.352 607.408 412.544 578.275 412.58H578.204C547.845 412.58 518.021 390.364 487.115 344.718L459.732 351.04L455.529 471Z" fill="#390075"/>
<path d="M750.763 480.215H381.048C380.351 480.22 379.659 480.084 379.015 479.816C378.371 479.548 377.787 479.153 377.298 478.655C376.846 478.186 376.504 477.622 376.298 477.004C376.092 476.386 376.027 475.73 376.108 475.084C381.346 436.664 391.085 404.234 405.038 378.649C414.765 360.85 432.421 347.837 453.624 342.932L536.904 323.717C538.561 323.378 540.065 322.512 541.189 321.248C542.314 319.984 542.999 318.39 543.142 316.704L543.737 305.299C543.793 304.434 544.104 303.606 544.63 302.918C545.297 302.037 561.084 281.404 582.145 280.892C593.264 280.631 603.503 285.905 612.504 296.608C613.175 297.395 613.546 298.395 613.551 299.429V312.787C613.577 314.368 614.06 315.907 614.944 317.217C615.827 318.527 617.072 319.553 618.528 320.169L713.486 363.457C719.422 366.095 724.767 369.896 729.207 374.636C733.647 379.377 737.09 384.959 739.333 391.054C747.834 415.437 753.37 443.772 755.787 475.274C755.831 475.914 755.734 476.556 755.504 477.154C755.274 477.753 754.915 478.293 754.453 478.739C753.466 479.699 752.14 480.229 750.763 480.215ZM386.739 471H745.37C742.822 442.201 737.583 416.235 729.785 393.888C727.984 388.986 725.217 384.497 721.649 380.685C718.08 376.873 713.782 373.816 709.01 371.696L614.04 328.384C610.956 327.078 608.319 324.904 606.448 322.127C604.577 319.349 603.554 316.088 603.503 312.74V301.001C597.015 293.739 590.086 290.06 582.883 290.06H582.395C568.668 290.369 556.786 303.37 553.631 307.132L553.107 317.133C552.738 324.574 547.154 330.812 539.321 332.61L455.982 351.861C437.659 356.1 422.313 367.339 413.896 382.816C401.133 406.234 391.99 435.891 386.751 471H386.739Z" fill="#390075"/>
<path d="M689.509 163.337V216.829C689.568 231.494 685.936 245.938 678.949 258.832C669.031 276.988 656.328 287.584 647.232 294.679C634.422 304.68 603.348 328.931 576.632 321.348C569.846 319.419 569.489 317.193 553.786 311.395C537.547 305.442 534.368 306.751 525.141 301.704C516.332 296.814 508.456 290.405 501.878 282.774C495.053 275.268 489.46 266.729 485.305 257.475L477.578 234.235C442.957 234.235 431.706 187.672 452.172 173.933C456.623 171.095 461.873 169.776 467.137 170.171C467.192 170.16 467.249 170.16 467.304 170.171C536.713 175.66 603.729 131.335 608.301 71.3553C611.182 79.1535 614.254 86.4635 617.516 93.2853C623.65 106.593 631.669 118.947 641.327 129.966C654.006 144.122 669.555 154.98 689.509 163.337Z" fill="#F5D9CB"/>
<path d="M565.429 320.657C560.096 319.467 548.035 316.943 543.38 310.323C542.775 309.332 542.001 308.454 541.094 307.728C538.249 305.537 535.32 306.418 530.534 304.728C528.01 303.835 526.32 303.073 524.724 302.477C516.89 299.572 511.164 292.679 500.02 278.988C494.466 272.165 489.257 265.068 484.412 257.725L476.888 235.104C458.72 234.783 447.719 221.925 443.457 209.888C438.207 195.054 441.564 179.981 451.624 173.231C456.226 170.29 461.654 168.912 467.101 169.302H467.363C503.878 172.195 540.63 161.409 568.179 139.705C591.455 121.371 605.349 97.0951 607.313 71.3435C607.337 71.1362 607.432 70.9435 607.581 70.7982C607.731 70.6528 607.926 70.5637 608.134 70.5458C608.344 70.5169 608.557 70.5585 608.74 70.6642C608.924 70.7698 609.066 70.9334 609.146 71.1292C612.147 79.2607 615.099 86.4159 618.326 92.9877C624.435 106.225 632.423 118.511 642.041 129.466C654.673 143.527 670.305 154.349 689.854 162.528C690.012 162.591 690.148 162.699 690.246 162.839C690.343 162.978 690.397 163.143 690.402 163.314V216.829C690.427 231.634 686.743 246.209 679.687 259.225C673.127 271.167 664.393 281.778 653.935 290.512L653.661 290.739C653.661 290.739 650.649 293.251 647.399 295.596C604.206 326.836 582.514 322.038 582.514 322.038C576.783 322.31 571.042 321.846 565.429 320.657ZM465.732 171.017C461.851 171.362 457.208 171.624 452.72 174.588C443.314 180.898 440.243 195.173 445.231 209.305C449.338 220.913 459.994 233.33 477.566 233.33C477.763 233.324 477.957 233.381 478.12 233.492C478.283 233.603 478.406 233.763 478.471 233.949L486.198 257.189C490.341 266.713 503.104 292.596 532.522 308.573C545.975 316.283 561.082 320.652 576.573 321.312C583.592 321.536 590.615 320.956 597.503 319.586C618.576 315.395 632.136 305.001 646.315 294.144C653.795 288.583 660.621 282.192 666.662 275.095C670.992 269.888 674.807 264.274 678.056 258.332C684.969 245.534 688.563 231.208 688.509 216.662V163.897C677.582 157.44 667.903 149.073 659.935 139.193C654.28 132.05 655.173 131.074 646.482 119.228C639.732 110.048 633.815 103.346 624.433 92.7139C618.087 85.5706 612.659 79.6178 608.777 75.4985C596.693 112.406 575.442 129.252 565.001 136.098C550.19 145.824 533.011 151.337 517.152 156.409C488.353 165.659 473.923 170.29 465.732 171.017Z" fill="#390075"/>
<path opacity="0.3" d="M689.509 162.897V216.377C686.842 229.126 682.435 241.449 676.413 252.998C670.853 263.618 662.733 279.119 646.22 291.977C643.541 293.996 640.76 295.876 637.886 297.608C627.349 304.342 616.122 309.93 604.396 314.276C593.288 318.336 587.728 320.371 583.085 320.229C574.204 319.907 565.227 316.169 553.881 310.966C536.868 303.144 535.808 307.454 525.236 301.275C508.366 291.477 501.151 274.809 502.628 273.749C504.104 272.69 513.343 286.941 534.487 296.179C540.445 298.66 546.529 300.826 552.714 302.668C559.712 304.891 566.827 306.732 574.025 308.18C599.324 312.264 629.124 287.691 643.923 269.963C660.018 250.719 669.265 226.672 670.21 201.602V153.23C676.399 156.917 682.849 160.148 689.509 162.897Z" fill="#390075"/>
<path d="M578.906 327.92C564.929 327.836 554.786 322.681 543.106 316.693C530.591 310.223 519.199 301.781 509.366 291.691C499.931 282.159 491.753 271.461 485.031 259.856C480.844 252.92 477.106 245.722 473.84 238.307C467.628 237.757 461.639 235.726 456.373 232.385C451.108 229.044 446.719 224.489 443.576 219.103C435.242 205.4 434.742 188.018 442.243 176.85C447.565 168.921 456.363 164.778 467.185 165.195H467.732C467.732 165.195 511.342 167.838 555.702 122.954C572.835 105.62 599.42 78.725 603.325 70.7006C603.67 69.9863 605.122 66.7599 607.67 66.4504C608.782 66.2944 609.914 66.5127 610.889 67.071C611.863 67.6292 612.624 68.4957 613.051 69.5339C630.576 116.894 653.34 142.741 691.628 158.742C692.628 159.159 693.378 161.016 694.557 162.945C709.189 186.756 696.021 220.294 688.294 239.962C685.12 248.288 681.174 256.3 676.508 263.892C670.185 273.83 662.548 282.869 653.804 290.762C642.213 301.587 629.001 310.533 614.647 317.276C600.491 323.848 591.598 328.003 578.906 327.92ZM465.72 174.338C462.248 174.251 458.816 175.107 455.791 176.815C453.774 178.036 452.054 179.691 450.755 181.66C445.16 189.994 445.814 203.828 452.315 214.579C455.625 220.044 463.304 229.223 477.59 229.223C478.625 229.204 479.639 229.508 480.493 230.093C481.346 230.677 481.996 231.514 482.352 232.485C484.071 238.759 486.441 244.836 489.424 250.617C493.591 258.677 497.973 264.261 505.235 273.404C511.592 281.417 514.759 285.417 518.331 288.881C527.577 297.769 538.375 304.883 550.19 309.871C557.655 313.05 566.929 317.014 578.537 317.598C594.395 318.407 606.253 312.371 614.171 308.49C625.921 302.728 633.136 296.215 643.172 287.155C653.625 277.714 661.709 270.487 669.103 258.689C679.699 241.724 682.711 226.151 684.508 216.377C687.545 199.667 687.545 182.547 684.508 165.838C675.752 159.702 667.349 153.076 659.34 145.991C659.34 145.991 656.507 143.479 654.006 141.158C624.957 114.049 612.694 82.8205 609.956 84.011C609.765 84.0825 609.48 84.3682 609.587 85.7373C594.86 111.929 577.251 127.109 565.108 135.669C529.094 160.98 475.293 174.267 465.709 174.338H465.72Z" fill="#390075"/>
<path d="M689.509 207.805V162.897C691.318 161.706 693.08 160.516 694.688 159.218C724.321 154.361 726.642 207.805 689.509 207.805Z" fill="#F5D9CB"/>
<path d="M689.509 208.674C689.39 208.679 689.271 208.66 689.16 208.619C689.048 208.578 688.946 208.515 688.858 208.434C688.771 208.354 688.701 208.256 688.651 208.148C688.601 208.04 688.573 207.924 688.568 207.805V162.897C688.57 162.753 688.607 162.612 688.678 162.487C688.749 162.362 688.851 162.258 688.973 162.183C690.783 160.992 692.461 159.802 694.081 158.611C694.209 158.511 694.361 158.446 694.521 158.421C701.974 157.23 708.486 159.48 712.844 164.873C719.118 172.612 719.856 185.244 714.594 194.911C709.748 203.769 700.843 208.674 689.509 208.674ZM690.449 163.361V206.948C700.581 206.686 708.534 202.185 712.903 194.113C717.868 185.006 717.201 173.124 711.332 165.885C708.582 162.504 703.546 158.742 695.093 160.064C693.616 161.206 692.092 162.29 690.449 163.361Z" fill="#390075"/>
<path d="M689.509 212.412C688.877 212.444 688.244 212.35 687.649 212.134C687.053 211.919 686.507 211.587 686.041 211.158C685.576 210.729 685.2 210.212 684.937 209.636C684.674 209.06 684.528 208.438 684.509 207.805V162.897C684.519 162.143 684.719 161.403 685.089 160.746C685.459 160.089 685.988 159.535 686.628 159.135C688.342 158.028 689.926 156.897 691.449 155.706C692.144 155.169 692.963 154.817 693.831 154.682C702.879 153.194 710.796 156.004 716.13 162.576C723.273 171.386 724.166 185.672 718.249 196.53C712.737 206.638 702.272 212.412 689.509 212.412ZM694.509 165.254V202.781C697.611 202.331 700.563 201.159 703.128 199.357C705.692 197.556 707.797 195.176 709.272 192.411C713.51 184.625 712.998 174.172 708.081 168.1C706.76 166.425 705.022 165.128 703.041 164.338C701.06 163.548 698.906 163.294 696.795 163.6C696.057 164.171 695.283 164.719 694.521 165.278L694.509 165.254Z" fill="#390075"/>
<path d="M726.928 121.859C713.626 156.503 708.73 193.808 712.641 230.711C687.842 201.519 673.829 177.267 665.543 160.123C662.186 153.17 657.983 143.705 649.47 131.883C638.79 117.215 625.737 104.431 610.849 94.0593C610.325 94.9879 609.48 96.4404 608.349 98.131C596.812 115.644 584.192 118.573 558.631 137.419C555.619 139.646 545.345 147.289 533.63 155.67C533.63 155.67 522.081 163.897 515.986 165.433C514.004 165.919 512.078 166.605 510.235 167.481C509.007 168.068 507.814 168.728 506.664 169.457C503.556 171.481 490.186 182.148 472.28 196.995C463.708 214.924 451.446 227.497 442.374 225.925C431.552 224.044 423.742 201.757 425.551 185.291C425.551 184.839 426.325 175.946 427.778 158.171C428.125 154.695 427.814 151.185 426.861 147.825C425.817 144.296 424.103 141.002 421.813 138.122C413.479 126.847 464.566 3.04152 559.286 4.14874C571.811 4.29161 599.217 6.79177 630.719 29.317C631.184 28.8884 636.386 24.2215 643.053 25.5311C645.264 25.9708 647.318 26.9897 649.006 28.4836C656.149 27.6264 671.281 25.0191 680.282 34.2935C684.437 38.5676 688.354 42.9131 692.021 47.3896C710.379 69.3077 722.773 93.5355 726.928 121.859Z" fill="#A10805"/>
<path opacity="0.2" d="M608.289 70.9863C611.17 78.7845 614.242 86.0944 617.504 92.9163C607.432 148.325 543.619 188.161 477.65 182.886C477.595 182.875 477.538 182.875 477.483 182.886H477.09C476.186 182.803 475.281 182.72 474.4 182.589C466.341 181.507 458.691 178.389 452.172 173.529C456.623 170.691 461.874 169.371 467.137 169.767C467.192 169.755 467.249 169.755 467.304 169.767C536.701 175.243 603.718 130.907 608.289 70.9863Z" fill="#390075"/>
<path opacity="0.55" d="M681.627 46.3538C677.92 43.8937 673.62 42.4734 669.176 42.241C664.732 42.0085 660.308 42.9725 656.364 45.0323L640.077 53.3662C546.999 -45.0568 436.373 63.6526 432.373 190.839C431.92 203.22 435.437 215.422 442.409 225.663C429.468 215.603 421.384 198.471 421.968 179.743C425.944 52.5447 536.594 -56.1647 629.648 42.2464L645.934 33.9126C656.649 28.3765 669.555 31.1386 677.472 41.0559C678.889 42.7703 680.27 44.5442 681.627 46.3538Z" fill="white"/>
<path d="M486.555 198.34C477.864 206.483 470.495 213.984 464.506 225.306C460.115 233.136 457.319 241.759 456.279 250.677C455.196 261.046 457.327 266.547 456.279 266.856C452.851 267.892 414.277 219.615 414.824 156.373C414.896 147.575 416.801 73.5223 479.114 28.5789C490.329 20.4831 515.045 3.13679 552.381 0.338989C580.374 -1.60744 608.311 4.86042 632.6 18.9116C642.354 16.0836 652.602 15.3852 662.65 16.8639C689.318 20.9832 704.688 40.1511 710.867 47.8182C732.809 75.201 733.107 108.786 733.25 125.561C733.25 126.276 733.25 126.907 733.25 126.942C733.178 150.134 723.916 176.672 723.225 178.636V178.72C709.962 216.424 734.071 257.951 728.083 260.951C723.32 263.332 700.7 240.009 683.604 208.567C672.008 187.244 672.341 179.446 663.364 162.766C654.899 146.956 639.303 125.383 608.039 104.227C587.264 119.287 562.298 137.562 533.653 158.992C517.218 171.201 501.493 184.338 486.555 198.34ZM445.434 226.58C448.112 226.58 448.731 220.865 456.649 210.055C458.708 207.245 460.518 205.114 470.483 194.899C485.496 179.517 492.996 171.838 497.02 169.076C504.414 164.004 505.414 164.933 519.438 155.98C525.605 152.063 530.582 148.551 534.606 145.67C537.178 143.824 540.035 141.67 543.749 138.717C580.791 109.255 599.356 94.4681 599.443 94.357C600.467 93.0474 604.075 88.2375 608.277 88.5232C611.159 88.7137 613.099 91.2377 613.802 92.0949C642.506 128.419 656.828 125.43 691.759 195.161C702.914 217.436 710.522 235.854 713.07 235.104C714.868 234.568 712.153 225.008 710.832 205.84C710.052 195.572 709.928 185.265 710.463 174.981C711.903 151.611 718.011 147.539 718.308 127.835C718.427 120.323 718.963 108.144 715.32 93.7379C708.093 65.0932 686.747 34.9603 664.852 30.2338C655.328 28.1741 636.279 28.9361 633.731 30.1266C633.08 30.4374 632.369 30.6039 631.648 30.6148C630.321 30.5564 629.057 30.0339 628.076 29.1385C624.981 26.6264 594.741 15.1495 560.215 12.6731C551.488 12.0421 547.119 11.7683 541.166 12.3279C512.89 14.959 493.627 31.6148 482.484 41.2464C482.484 41.2464 442.54 75.7724 433.98 130.062L433.897 130.621C431.561 146.401 431.436 162.429 433.528 178.243C435.35 194.292 439.124 226.437 445.445 226.568L445.434 226.58Z" fill="#390075"/>
<path d="M299.638 694.062H825.97C825.97 704.551 821.803 714.611 814.386 722.028C806.969 729.445 796.909 733.612 786.42 733.612H339.189C328.699 733.612 318.64 729.445 311.222 722.028C303.805 714.611 299.638 704.551 299.638 694.062Z" fill="#B5C3D1"/>
<path d="M783.051 734.362H342.546C318.437 734.362 298.829 716.314 298.829 694.086V693.312H826.839V694.086C826.815 716.314 807.195 734.362 783.051 734.362ZM300.484 694.86C300.936 715.885 319.64 732.874 342.57 732.874H783.074C806.004 732.874 824.744 715.897 825.16 694.86H300.484Z" fill="#390075"/>
<path opacity="0.8" d="M824.529 704.289C825.492 700.973 825.981 697.538 825.982 694.086H299.638C299.64 697.538 300.129 700.973 301.091 704.289H824.529Z" fill="white"/>
<path d="M783.05 743.018H342.546C316.116 743.018 294.614 723.207 294.614 698.86C294.634 698.227 294.78 697.605 295.043 697.029C295.306 696.453 295.682 695.936 296.147 695.507C296.613 695.078 297.159 694.746 297.755 694.53C298.35 694.315 298.982 694.221 299.615 694.253H825.958C826.59 694.221 827.223 694.315 827.818 694.53C828.413 694.746 828.96 695.078 829.425 695.507C829.891 695.936 830.266 696.453 830.53 697.029C830.793 697.605 830.939 698.227 830.958 698.86C831.006 723.207 809.481 743.018 783.05 743.018ZM304.972 703.408C307.425 720.504 323.354 733.731 342.57 733.731H783.074C802.29 733.731 818.219 720.492 820.672 703.408H304.972Z" fill="#390075"/>
<path d="M364.547 733.636H762.275C775.681 733.636 786.967 725.076 788.539 713.718L820.577 498.145C822.446 484.715 810.147 472.917 794.313 472.917H332.509C316.663 472.917 304.377 484.715 306.246 498.145L338.284 713.718C339.855 725.076 351.142 733.636 364.547 733.636Z" fill="#C5D1E1"/>
<path d="M762.276 734.362H364.547C350.737 734.362 339.082 725.517 337.45 713.778L305.413 498.252C304.991 495.07 305.309 491.833 306.341 488.794C307.374 485.754 309.093 482.994 311.365 480.727C314.132 477.953 317.429 475.764 321.06 474.291C324.69 472.818 328.58 472.092 332.498 472.155H794.313C798.231 472.092 802.121 472.818 805.752 474.291C809.382 475.764 812.679 477.953 815.446 480.727C817.717 482.992 819.436 485.751 820.468 488.788C821.5 491.825 821.819 495.06 821.398 498.24L789.337 713.825C787.741 725.552 776.098 734.362 762.276 734.362ZM332.486 473.631C328.8 473.571 325.14 474.253 321.724 475.638C318.309 477.023 315.207 479.081 312.604 481.691C310.486 483.8 308.882 486.368 307.918 489.197C306.954 492.026 306.655 495.039 307.044 498.002L339.082 713.575C340.605 724.552 351.547 732.827 364.524 732.827H762.276C775.253 732.827 786.194 724.552 787.718 713.587L819.755 498.038C820.143 495.076 819.843 492.066 818.878 489.239C817.914 486.412 816.312 483.846 814.196 481.739C811.593 479.129 808.491 477.07 805.075 475.685C801.659 474.301 797.999 473.618 794.313 473.679L332.486 473.631Z" fill="#390075"/>
<path opacity="0.8" d="M306.234 498.145L335.486 693.55L338.284 713.706C339.867 725.064 351.142 733.612 364.548 733.612H762.276C775.681 733.612 786.956 725.052 788.539 713.706L820.589 498.133C822.458 484.703 810.16 472.905 794.325 472.905H332.498C316.687 472.917 304.365 484.715 306.234 498.145Z" fill="white"/>
<path d="M381.156 733.636H745.667C757.918 733.636 768.228 725.659 769.669 715.063L798.933 515.05C800.635 502.526 789.408 491.525 774.931 491.525H351.892C337.415 491.525 326.188 502.538 327.89 515.05L357.154 715.063C358.606 725.659 368.917 733.636 381.156 733.636Z" fill="#B5C3D1"/>
<path d="M762.275 738.243H364.547C348.641 738.243 335.212 727.957 333.319 714.301L301.281 498.811C300.781 495.076 301.149 491.275 302.357 487.705C303.565 484.134 305.58 480.891 308.246 478.227C311.419 475.035 315.203 472.515 319.372 470.817C323.541 469.119 328.009 468.278 332.509 468.345H794.313C798.814 468.278 803.282 469.119 807.45 470.817C811.619 472.515 815.403 475.035 818.577 478.227C821.237 480.885 823.249 484.12 824.457 487.682C825.665 491.243 826.036 495.036 825.541 498.764L793.504 714.349C791.611 727.957 778.193 738.243 762.275 738.243ZM332.486 477.512C329.383 477.456 326.302 478.025 323.424 479.184C320.546 480.344 317.931 482.071 315.735 484.263C314.006 485.979 312.697 488.07 311.908 490.375C311.12 492.679 310.873 495.134 311.187 497.549L343.224 713.04C344.486 722.135 353.654 728.969 364.535 728.969H762.275C773.157 728.969 782.324 722.135 783.586 713.075L815.624 497.454C815.93 495.046 815.678 492.599 814.887 490.303C814.096 488.008 812.788 485.925 811.064 484.215C808.868 482.024 806.253 480.296 803.375 479.137C800.497 477.977 797.415 477.408 794.313 477.465L332.486 477.512Z" fill="#390075"/>
<path opacity="0.3" d="M335.486 693.562L338.284 713.718C339.867 725.076 351.142 733.624 364.547 733.624H762.276C775.681 733.624 786.956 725.064 788.539 713.718L820.589 498.145C822.458 484.715 810.16 472.917 794.325 472.917H760.513C737.655 668.239 593.61 729.457 335.486 693.562Z" fill="#390075"/>
<path opacity="0.3" d="M608.289 70.9863C603.718 130.907 536.701 175.243 467.292 169.802C467.237 169.791 467.181 169.791 467.126 169.802H466.733C465.828 169.719 464.923 169.636 464.042 169.505L432.171 150.515C481.46 166.909 523.843 159.063 551.631 99.9406C567.703 57.5688 587.264 55.6639 608.289 70.9863Z" fill="#390075"/>
<path d="M583.55 625.308L569.132 617.819L554.798 625.45L557.465 609.414L545.773 598.139L561.834 595.722L568.954 581.114L576.216 595.651L592.3 597.901L580.728 609.307L583.55 625.308Z" fill="white"/>
<path opacity="0.3" d="M595.994 246.14C596.354 238.515 589.851 232.013 581.471 231.617C573.09 231.222 566.005 237.083 565.645 244.709C565.285 252.334 571.788 258.836 580.168 259.231C588.549 259.626 595.635 253.765 595.994 246.14Z" fill="url(#paint1_linear)"/>
<path d="M979.217 671.907V678.716C979.217 688.539 973.419 697.575 964.05 702.289L943.167 713.254C939.735 715.06 935.871 715.884 932 715.636C936.86 710.056 940.046 703.218 941.191 695.908C941.346 694.837 941.465 693.717 941.548 692.622L954.156 686.003C955.554 685.354 956.741 684.326 957.583 683.036C958.425 681.746 958.888 680.245 958.918 678.705V671.895C958.918 667.347 954.894 663.644 949.953 663.644H941.62V645H949.953C966.133 645 979.217 657.013 979.217 671.907Z" fill="#00FFD1"/>
<path opacity="0.31" d="M544.083 244.116C544.821 247.998 537.809 252.355 528.439 253.867C519.069 255.379 510.866 253.462 510.128 249.581C509.39 245.7 516.402 241.342 525.772 239.83C535.142 238.318 543.345 240.283 544.083 244.116Z" fill="url(#paint2_linear)"/>
<path opacity="0.31" d="M648.137 243.497C654.673 243.497 659.971 241.307 659.971 238.604C659.971 235.902 654.673 233.711 648.137 233.711C641.601 233.711 636.303 235.902 636.303 238.604C636.303 241.307 641.601 243.497 648.137 243.497Z" fill="url(#paint3_linear)"/>
<path d="M555.012 172.588C553.226 171.91 551 171.243 548.928 170.671C546.857 170.1 544.678 169.54 542.523 169.1C538.209 168.145 533.833 167.497 529.427 167.159C525.063 166.811 520.675 166.907 516.331 167.445C511.985 168.031 507.768 169.339 503.854 171.314C503.547 171.475 503.189 171.51 502.857 171.409C502.526 171.309 502.246 171.083 502.08 170.778C501.937 170.514 501.892 170.208 501.953 169.914C502.014 169.62 502.177 169.357 502.413 169.171C506.249 166.22 510.556 163.938 515.152 162.421C519.768 160.943 524.524 159.942 529.344 159.433C534.146 158.907 538.98 158.72 543.809 158.873C546.19 158.873 548.643 159.063 551.059 159.278C553.476 159.492 555.822 159.718 558.476 160.171H558.536C559.379 160.305 560.186 160.605 560.912 161.053C561.639 161.501 562.269 162.088 562.767 162.781C563.265 163.474 563.621 164.259 563.814 165.09C564.008 165.921 564.035 166.782 563.894 167.624C563.575 169.323 562.598 170.828 561.176 171.811C559.753 172.795 558 173.176 556.298 172.874C555.861 172.818 555.431 172.723 555.012 172.588Z" fill="#390075"/>
<path opacity="0.3" d="M725.916 98.9763C722.046 127.835 712.177 149.515 691.104 163.1C649.339 145.634 626.898 117.144 609.885 71.1769C687.949 133.633 730.321 113.906 691.104 24.4239C709.367 46.4253 721.761 70.6531 725.916 98.9763Z" fill="#390075"/>
<path opacity="0.3" d="M1082.76 775.544C1112.43 778.675 1128.82 782.115 1128.82 785.723C1128.82 800.367 933.894 812.225 601.634 812.225C269.375 812.225 0 800.355 0 785.723C0 782.151 16.3939 778.675 46.0625 775.544H1082.76Z" fill="#390075"/>
<path d="M54.5274 773.651C75.7668 770.71 97.0182 770.007 118.258 769.638C139.497 769.269 160.749 769.448 181.988 769.638C203.227 769.829 224.479 769.853 245.718 769.829H978.635L994.564 769.698L1010.49 769.46C1031.73 769.388 1052.98 769.567 1074.22 773.639C1074.48 773.676 1074.73 773.765 1074.96 773.902C1075.18 774.038 1075.38 774.219 1075.53 774.433C1075.68 774.646 1075.79 774.889 1075.85 775.145C1075.9 775.402 1075.9 775.667 1075.86 775.924C1075.76 776.305 1075.55 776.65 1075.26 776.916C1074.97 777.182 1074.61 777.359 1074.22 777.425C1052.98 781.496 1031.73 781.663 1010.49 781.603L994.564 781.365L978.635 781.234H245.742C224.495 781.234 203.251 781.298 182.012 781.425C160.772 781.651 139.521 781.865 118.281 781.425C97.042 780.984 75.7906 780.353 54.5512 777.413C54.2914 777.389 54.039 777.314 53.8091 777.19C53.5791 777.067 53.3764 776.899 53.2131 776.695C53.0497 776.492 52.929 776.258 52.8582 776.007C52.7874 775.756 52.768 775.493 52.8011 775.234C52.8875 774.823 53.1004 774.449 53.41 774.165C53.7196 773.881 54.1103 773.701 54.5274 773.651Z" fill="#390075"/>
<path d="M597.527 251.486C597.372 251.307 594.574 254.296 589.705 256.248C587.401 257.356 584.851 257.852 582.3 257.689C579.572 257.317 577.02 256.13 574.978 254.284C572.806 252.553 571.062 250.345 569.882 247.831C570.144 248.617 570.489 249.51 570.906 250.45C571.342 251.46 571.847 252.439 572.418 253.379C573.768 255.308 575.576 256.871 577.68 257.927C580.672 259.264 584.028 259.553 587.205 258.748C589.299 258.08 591.259 257.044 592.991 255.689C594.746 254.576 596.283 253.152 597.527 251.486Z" fill="#390075" stroke="#390075" stroke-width="5" stroke-miterlimit="10"/>
<path d="M589.645 275.476C589.752 274.749 586.883 273.487 584.216 273.202C582.276 273.024 580.321 273.277 578.49 273.94C571.144 276.214 564.798 274.916 564.798 275.226C564.798 275.845 589.324 277.535 589.645 275.476Z" fill="#BF272E" stroke="#BF272E" stroke-width="2" stroke-miterlimit="10"/>
<path d="M613.825 266.987C613.694 266.582 610.254 268.094 602.765 268.916C599.491 269.273 597.407 269.285 594.919 270.713C592.705 271.987 590.383 274.285 590.8 275.071C591.967 277.261 614.159 268.023 613.825 266.987Z" fill="#BF272E" stroke="#BF272E" stroke-width="2" stroke-miterlimit="10"/>
<path d="M612.516 267.094C613.421 267.951 609.516 275.976 602.289 280.916C592.86 287.357 580.728 286.5 572.525 282.809C566.834 280.25 562.691 276.166 563.132 275.345C563.572 274.523 569.263 277.94 578.692 278.297C581.48 278.396 584.271 278.225 587.026 277.785C592.754 276.922 598.298 275.111 603.432 272.428C609.563 269.285 611.944 266.535 612.516 267.094Z" fill="#BB0823" stroke="#BB0823" stroke-miterlimit="10"/>
<path d="M623.088 259.415C621.897 258.606 610.98 272.237 591.693 275.726C580.263 277.797 568.453 275.833 565.703 275.38C561.305 274.66 556.976 273.568 552.762 272.118C556.321 274.32 560.089 276.162 564.012 277.619C571.196 280.282 578.835 281.496 586.49 281.19C592.255 280.68 597.876 279.115 603.074 276.571C607.809 274.315 612.147 271.308 615.921 267.666C619.159 264.737 623.85 259.915 623.088 259.415Z" fill="#390075"/>
<path d="M613.266 171.659C615.111 170.802 617.409 169.897 619.564 169.112C621.719 168.326 623.969 167.54 626.219 166.873C630.701 165.478 635.271 164.38 639.898 163.587C644.492 162.781 649.153 162.418 653.816 162.504C658.418 162.63 662.968 163.499 667.293 165.076H667.353C667.693 165.203 668.068 165.2 668.406 165.068C668.744 164.937 669.022 164.685 669.186 164.361C669.325 164.09 669.354 163.775 669.267 163.483C669.181 163.191 668.986 162.942 668.722 162.79C664.413 160.234 659.71 158.411 654.804 157.397C649.791 156.392 644.69 155.882 639.577 155.873C634.446 155.846 629.32 156.16 624.231 156.813C621.671 157.111 619.135 157.504 616.599 158.004C614.063 158.504 611.611 158.944 608.825 159.671H608.754C607.856 159.801 606.995 160.118 606.228 160.602C605.461 161.087 604.805 161.727 604.301 162.482C603.798 163.237 603.459 164.089 603.307 164.984C603.155 165.878 603.192 166.794 603.418 167.673C603.643 168.552 604.05 169.373 604.614 170.084C605.178 170.795 605.884 171.38 606.689 171.799C607.493 172.219 608.376 172.465 609.282 172.521C610.187 172.577 611.095 172.441 611.944 172.124C612.397 172.008 612.84 171.852 613.266 171.659Z" fill="#390075"/>
<path d="M935.741 720.747C935.185 720.747 934.629 720.747 934.074 720.747C933.11 720.703 932.174 720.405 931.363 719.882C930.551 719.359 929.893 718.631 929.454 717.771C929.06 716.935 928.918 716.003 929.045 715.087C929.172 714.172 929.562 713.313 930.169 712.616C934.427 707.721 937.221 701.726 938.229 695.317C938.229 695.174 938.229 695.043 938.312 694.9C938.419 694.079 938.514 693.234 938.574 692.4C938.646 691.548 938.936 690.728 939.415 690.019C939.894 689.31 940.548 688.736 941.312 688.352L953.92 681.733C954.501 681.487 954.999 681.081 955.358 680.563C955.716 680.044 955.92 679.434 955.944 678.804V671.994C955.904 671.104 955.514 670.265 954.858 669.661C954.203 669.056 953.335 668.736 952.444 668.768H944.11C942.721 668.823 941.367 668.325 940.345 667.383C939.323 666.441 938.716 665.132 938.657 663.744V645.028C938.716 643.64 939.323 642.331 940.345 641.389C941.367 640.447 942.721 639.949 944.11 640.004H952.444C971.564 640.004 987.113 654.291 987.113 671.935V678.745C987.113 690.424 980.22 701.151 969.112 706.735L948.313 717.652C944.435 719.689 940.12 720.751 935.741 720.747ZM948.956 697.151C948.38 700.647 947.372 704.058 945.955 707.306L963.814 697.948C967.467 696.223 970.565 693.51 972.757 690.117C974.949 686.723 976.149 682.784 976.219 678.745V671.935C976.219 659.874 965.504 650.052 952.408 650.052H949.515V658.648H952.408C960.361 658.648 966.826 664.601 966.826 671.923V678.733C966.771 681.201 966.028 683.605 964.682 685.674C963.336 687.744 961.44 689.397 959.206 690.448L949.158 695.734C949.158 696.02 949.087 696.305 949.039 696.603C949.018 696.787 948.986 696.97 948.944 697.151H948.956Z" fill="#390075"/>
<defs>
<linearGradient id="paint0_linear" x1="852.507" y1="685.252" x2="942.358" y2="685.252" gradientUnits="userSpaceOnUse">
<stop stop-color="#00FFD1"/>
</linearGradient>
<linearGradient id="paint1_linear" x1="564.511" y1="258.481" x2="565.813" y2="230.879" gradientUnits="userSpaceOnUse">
<stop stop-color="#FF8319"/>
<stop offset="0.12" stop-color="#FF851D"/>
<stop offset="0.23" stop-color="#FE8B29"/>
<stop offset="0.34" stop-color="#FD943C"/>
<stop offset="0.45" stop-color="#FBA158"/>
<stop offset="0.56" stop-color="#F9B27B"/>
<stop offset="0.67" stop-color="#F7C7A6"/>
<stop offset="0.75" stop-color="#F5D9CB"/>
</linearGradient>
<linearGradient id="paint2_linear" x1="510.069" y1="246.855" x2="544.13" y2="246.855" gradientUnits="userSpaceOnUse">
<stop stop-color="#FF8319"/>
<stop offset="0.4" stop-color="#FF841B"/>
<stop offset="0.54" stop-color="#FF8722"/>
<stop offset="0.65" stop-color="#FE8D2D"/>
<stop offset="0.73" stop-color="#FD953E"/>
<stop offset="0.8" stop-color="#FCA054"/>
<stop offset="0.87" stop-color="#FAAD70"/>
<stop offset="0.92" stop-color="#F8BC90"/>
<stop offset="0.97" stop-color="#F6CEB4"/>
<stop offset="1" stop-color="#F5D9CB"/>
</linearGradient>
<linearGradient id="paint3_linear" x1="13286" y1="2195.29" x2="13756.3" y2="2195.29" gradientUnits="userSpaceOnUse">
<stop stop-color="#FF8319"/>
<stop offset="0.4" stop-color="#FF841B"/>
<stop offset="0.54" stop-color="#FF8722"/>
<stop offset="0.65" stop-color="#FE8D2D"/>
<stop offset="0.73" stop-color="#FD953E"/>
<stop offset="0.8" stop-color="#FCA054"/>
<stop offset="0.87" stop-color="#FAAD70"/>
<stop offset="0.92" stop-color="#F8BC90"/>
<stop offset="0.97" stop-color="#F6CEB4"/>
<stop offset="1" stop-color="#F5D9CB"/>
</linearGradient>
</defs>
</svg>
