<svg width="90" height="47" viewBox="0 0 90 47" fill="none" xmlns="http://www.w3.org/2000/svg">
<path d="M45.7116 2.74271C47.2355 3.18322 49.1166 3.59991 50.8667 3.93326C52.6168 4.26662 54.4383 4.58806 56.2479 4.81426C59.8448 5.31963 63.4737 5.56235 67.1059 5.5405C70.7097 5.5251 74.3016 5.126 77.8208 4.34995C81.3182 3.54339 84.6466 2.12898 87.6547 0.171112C87.775 0.0940828 87.9094 0.0415801 88.05 0.0166434C88.1906 -0.00829332 88.3347 -0.00518145 88.4741 0.0257993C88.6135 0.05678 88.7455 0.115016 88.8623 0.197163C88.9791 0.279309 89.0785 0.383753 89.1549 0.504466C89.2952 0.71384 89.3598 0.964811 89.3382 1.21592C89.3165 1.46702 89.2099 1.70324 89.0358 1.88551C86.1978 4.65699 82.8929 6.9059 79.2733 8.5288C75.6422 10.1215 71.8503 11.319 67.963 12.1005C64.0802 12.8884 60.1448 13.3898 56.1884 13.6005C54.2121 13.7315 52.2239 13.7791 50.2357 13.7672C48.2474 13.7553 46.3188 13.7672 44.0924 13.5291C42.6421 13.3813 41.3044 12.6802 40.3577 11.5715C39.4109 10.4629 38.9277 9.03201 39.0088 7.57635C39.0383 6.86734 39.2112 6.17167 39.5171 5.53136C39.8229 4.89105 40.2555 4.31939 40.7885 3.85092C41.3215 3.38245 41.9439 3.02688 42.6182 2.80571C43.2925 2.58454 44.0046 2.50236 44.7116 2.56412C45.0495 2.5939 45.3842 2.65367 45.7116 2.74271Z" fill="#390075"/>
<path d="M4.14796 37.716C7.96964 44.5498 20.8157 43.5974 38.2097 42.2997C51.5677 41.2996 58.9015 40.6448 62.1398 35.1564C66.2948 28.013 61.2588 16.9885 54.9965 11.131C46.3769 3.01142 33.0189 2.34472 23.173 6.52356C9.1602 12.4644 -0.411859 29.5489 4.14796 37.716Z" fill="white" stroke="#390075" stroke-width="6" stroke-miterlimit="10"/>
</svg>
